Coordinates
version=1
nRows=22
nColumns=34
inDegrees=no

Units are S.I. units (second, meters, Newtons, ...)
If the header above contains a line with 'inDegrees', this indicates whether rotational values are in degrees (yes) or radians (no).

endheader
time	pelvis_tilt	pelvis_list	pelvis_rotation	pelvis_tx	pelvis_ty	pelvis_tz	hip_flexion_r	hip_adduction_r	hip_rotation_r	knee_angle_r	ankle_angle_r	subtalar_angle_r	mtp_angle_r	hip_flexion_l	hip_adduction_l	hip_rotation_l	knee_angle_l	ankle_angle_l	subtalar_angle_l	mtp_angle_l	lumbar_extension	lumbar_bending	lumbar_rotation	arm_flex_r	arm_add_r	arm_rot_r	elbow_flex_r	pro_sup_r	arm_flex_l	arm_add_l	arm_rot_l	elbow_flex_l	pro_sup_l
6.69	-0.725853	0.0718711	0.102428	-0.400563	0.65471	-0.537671	1.95681	-0.192554	0.0753831	1.52501	0.524799	-0.203142	-0.126304	1.86901	-0.237256	-0.0919911	1.3702	0.319332	-0.0180861	-0.126315	-0.570107	0.0565883	-0.0143699	1.91813	-0.210252	0.708421	2.18182	1.9558	1.74988	-0.165422	0.420582	2.32066	1.97412
6.7	-0.726202	0.0712633	0.102035	-0.400677	0.654312	-0.537427	1.9579	-0.19188	0.0747097	1.52596	0.524678	-0.203702	-0.126304	1.87082	-0.237366	-0.0902374	1.3714	0.319253	-0.018838	-0.126315	-0.57169	0.0558333	-0.0147192	1.91775	-0.209016	0.707071	2.18204	1.9558	1.75076	-0.165255	0.422416	2.32158	1.97422
6.71	-0.726436	0.0706764	0.101562	-0.400754	0.653964	-0.537173	1.95875	-0.191175	0.0739814	1.52686	0.524687	-0.204131	-0.126304	1.87239	-0.237581	-0.0885278	1.37255	0.319288	-0.0193003	-0.126315	-0.573014	0.0549819	-0.0150478	1.91722	-0.207792	0.705644	2.18214	1.95581	1.75147	-0.165068	0.424226	2.32243	1.97423
6.72	-0.726546	0.0700845	0.101016	-0.400789	0.653671	-0.536914	1.95934	-0.19047	0.0731549	1.52767	0.524806	-0.204415	-0.126304	1.87372	-0.237876	-0.0868312	1.37364	0.319407	-0.0195092	-0.126315	-0.574076	0.0540566	-0.015321	1.91655	-0.206642	0.704178	2.18217	1.95581	1.75197	-0.164818	0.425992	2.32317	1.97418
6.73	-0.72651	0.069461	0.100374	-0.400781	0.653438	-0.536647	1.95961	-0.189768	0.0721743	1.52839	0.52501	-0.204548	-0.126304	1.87477	-0.238255	-0.0851047	1.37467	0.3196	-0.0194992	-0.126315	-0.574884	0.053067	-0.015487	1.91574	-0.205612	0.702709	2.18216	1.95582	1.75225	-0.164475	0.427695	2.32377	1.97409
6.74	-0.72631	0.0687835	0.0996034	-0.400726	0.653269	-0.536371	1.95951	-0.189054	0.0709842	1.52896	0.525271	-0.204532	-0.126304	1.87554	-0.238749	-0.0833108	1.37562	0.319866	-0.0192957	-0.126315	-0.575451	0.0520171	-0.0154866	1.91483	-0.204728	0.701274	2.18213	1.95582	1.75231	-0.16403	0.429318	2.32422	1.97397
6.75	-0.725941	0.0680412	0.0986769	-0.400623	0.65317	-0.536087	1.95901	-0.188318	0.0695478	1.52937	0.525573	-0.20436	-0.126304	1.87602	-0.239386	-0.0814373	1.37651	0.320216	-0.0189183	-0.126315	-0.575775	0.0509123	-0.015278	1.91383	-0.203994	0.699918	2.18206	1.95583	1.75215	-0.163502	0.430849	2.32452	1.97384
6.76	-0.725424	0.0672393	0.0975945	-0.40047	0.653146	-0.535797	1.95809	-0.187572	0.0678598	1.52957	0.525913	-0.204014	-0.126304	1.87621	-0.240175	-0.079507	1.37731	0.320663	-0.0183909	-0.126315	-0.575827	0.0497641	-0.0148588	1.91278	-0.203394	0.69869	2.18192	1.95583	1.75175	-0.162945	0.432282	2.32471	1.97371
6.77	-0.724804	0.0663974	0.096384	-0.400267	0.6532	-0.535507	1.95678	-0.186851	0.0659493	1.52956	0.526307	-0.203467	-0.126304	1.87611	-0.241097	-0.0775711	1.37799	0.32122	-0.0177527	-0.126315	-0.575544	0.0485887	-0.0142723	1.91169	-0.202895	0.697628	2.18166	1.95584	1.75111	-0.162431	0.433604	2.32482	1.9736
6.78	-0.724131	0.0655409	0.09509	-0.400014	0.653332	-0.535227	1.95512	-0.186199	0.0638693	1.52931	0.526782	-0.202703	-0.126304	1.87571	-0.242107	-0.0756904	1.37852	0.321894	-0.0170571	-0.126315	-0.574847	0.047405	-0.0135913	1.91055	-0.202468	0.696746	2.1812	1.95585	1.75021	-0.16204	0.434787	2.32491	1.97352
6.79	-0.723445	0.0646904	0.0937597	-0.399709	0.653544	-0.534964	1.95315	-0.185653	0.0616802	1.52884	0.527369	-0.201726	-0.126304	1.87504	-0.243153	-0.0739163	1.37886	0.322692	-0.0163595	-0.126315	-0.573659	0.046233	-0.0128938	1.90937	-0.202095	0.696018	2.18042	1.95585	1.74904	-0.161834	0.435778	2.32496	1.97348
6.8	-0.722761	0.0638539	0.0924308	-0.399353	0.653835	-0.534724	1.95091	-0.185234	0.0594355	1.52813	0.528086	-0.200571	-0.126304	1.87408	-0.244192	-0.0722795	1.379	0.323612	-0.0157024	-0.126315	-0.571926	0.0450929	-0.0122424	1.90814	-0.201773	0.695367	2.17921	1.95586	1.74762	-0.161855	0.436502	2.32493	1.97352
6.81	-0.722075	0.0630263	0.0911275	-0.398943	0.654206	-0.534509	1.9484	-0.184943	0.0571723	1.52722	0.528932	-0.199294	-0.126304	1.87283	-0.24519	-0.0707876	1.37893	0.324649	-0.0151097	-0.126315	-0.569618	0.0440023	-0.0116741	1.90686	-0.201517	0.694662	2.17742	1.95586	1.74596	-0.162121	0.436866	2.32474	1.97365
6.82	-0.721365	0.062193	0.0898575	-0.398476	0.654662	-0.53432	1.9456	-0.184761	0.0549091	1.52609	0.529877	-0.197959	-0.126304	1.87129	-0.246133	-0.0694285	1.37864	0.325788	-0.0145883	-0.126315	-0.566732	0.0429722	-0.0111965	1.90552	-0.201347	0.693725	2.17493	1.95587	1.74414	-0.162632	0.436764	2.32426	1.97388
6.83	-0.7206	0.0613363	0.0886139	-0.397951	0.655206	-0.534153	1.94249	-0.184649	0.0526488	1.52474	0.530878	-0.196637	-0.126304	1.86943	-0.247027	-0.0681765	1.37815	0.327007	-0.0141335	-0.126315	-0.563291	0.042003	-0.0107886	1.90413	-0.201279	0.692343	2.17162	1.95588	1.7422	-0.163382	0.43609	2.32333	1.97419
6.84	-0.719739	0.0604433	0.0873809	-0.397364	0.655846	-0.534004	1.93901	-0.184554	0.05039	1.52317	0.531884	-0.195395	-0.126304	1.86722	-0.247886	-0.0670033	1.37745	0.328284	-0.0137387	-0.126315	-0.559336	0.0410823	-0.0104079	1.90271	-0.201329	0.690289	2.1674	1.95588	1.74024	-0.164355	0.434743	2.32175	1.97453
6.85	-0.718739	0.0595136	0.0861452	-0.396712	0.65659	-0.533866	1.93511	-0.184424	0.0481395	1.52137	0.532859	-0.194289	-0.126304	1.8646	-0.248723	-0.0658883	1.37651	0.329591	-0.0134042	-0.126315	-0.55492	0.0401863	-0.0100055	1.90125	-0.201523	0.68736	2.16217	1.95589	1.73832	-0.165529	0.43264	2.3193	1.97483
6.86	-0.717549	0.0585628	0.0849044	-0.395991	0.657447	-0.533738	1.93073	-0.184218	0.0459213	1.51933	0.533786	-0.193358	-0.126304	1.86152	-0.249536	-0.0648266	1.37535	0.330895	-0.0131422	-0.126315	-0.550106	0.0392825	-0.00954175	1.89975	-0.201916	0.683413	2.15587	1.9559	1.73654	-0.166874	0.429722	2.31571	1.97495
6.87	-0.716114	0.0576191	0.0836667	-0.395198	0.658426	-0.533616	1.92583	-0.18391	0.0437739	1.51707	0.534661	-0.192623	-0.126304	1.85792	-0.250312	-0.0638267	1.37394	0.332162	-0.0129733	-0.126315	-0.544951	0.0383343	-0.00899166	1.8982	-0.202585	0.678387	2.14839	1.95591	1.73497	-0.168356	0.425961	2.31068	1.97472
6.88	-0.714381	0.0567134	0.0824443	-0.394327	0.659533	-0.5335	1.92036	-0.183486	0.0417416	1.51461	0.535495	-0.192095	-0.126304	1.85372	-0.251035	-0.0629025	1.37231	0.333361	-0.0129168	-0.126315	-0.539495	0.0373097	-0.0083402	1.89656	-0.203617	0.672302	2.13961	1.95592	1.73367	-0.169935	0.42135	2.30391	1.97394
6.89	-0.71231	0.0558694	0.0812498	-0.393375	0.660771	-0.53339	1.91431	-0.182932	0.039864	1.51196	0.536304	-0.191781	-0.126304	1.84891	-0.251692	-0.0620649	1.37047	0.334476	-0.0129824	-0.126315	-0.533748	0.0361931	-0.00757975	1.89479	-0.205077	0.665242	2.12936	1.95593	1.73264	-0.171579	0.415901	2.2951	1.97241
6.9	-0.709884	0.0550947	0.0800995	-0.392336	0.662141	-0.533289	1.90768	-0.182252	0.0381679	1.50916	0.537099	-0.191693	-0.126304	1.84347	-0.252264	-0.0613166	1.36843	0.335505	-0.0131686	-0.126315	-0.527684	0.0349941	-0.00671432	1.89278	-0.207005	0.657329	2.11748	1.95594	1.73189	-0.173265	0.409644	2.28396	1.97
